<svg width="24" height="25" viewBox="0 0 24 25" fill="none" xmlns="http://www.w3.org/2000/svg">
<path fill-rule="evenodd" clip-rule="evenodd" d="M5.88805 3.05268C6.44033 3.05268 6.88805 3.5004 6.88805 4.05268C6.88805 4.60497 6.44033 5.05268 5.88805 5.05268H3.78555C3.25369 5.05268 2.81489 5.469 2.78693 6.00012L1.99746 21.0001C1.96843 21.5516 2.39603 21.9696 3.00011 22H21.0001C21.5524 22 22.0015 21.6048 22.0001 21L21.0155 6.0001C20.9875 5.46898 20.5487 5.05266 20.0168 5.05266H17.888C17.3358 5.05266 16.888 4.60495 16.888 4.05266C16.888 3.50038 17.3358 3.05266 17.888 3.05266H20.0168C21.6124 3.05266 22.9288 4.30161 23.0127 5.89499L23.8021 21C23.8014 20.9211 23.8055 21.0788 23.8021 21C23.8021 22.6568 22.6529 24.0527 20.996 24.0527L3.00015 24C3.07895 24.0034 2.92128 23.9993 3.00015 24C1.34559 23.9129 -0.0869707 22.6547 0.000111647 21.0001L0.789697 5.89501C0.873559 4.30163 2.18997 3.05268 3.78555 3.05268H5.88805ZM9.89207 5C9.89207 5.55228 9.44435 6 8.89207 6C8.33978 6 7.89207 5.55228 7.89207 5V3C7.89207 1.34315 9.23522 0 10.8921 0H12.8921C14.5489 0 15.8921 1.34315 15.8921 3V5C15.8921 5.55228 15.4444 6 14.8921 6C14.3398 6 13.8921 5.55228 13.8921 5V3C13.8921 2.44772 13.4444 2 12.8921 2H10.8921C10.3398 2 9.89207 2.44772 9.89207 3V5Z" fill="#798490"/>
<path d="M3 19C3 18.4477 3.44772 18 4 18H20C20.5523 18 21 18.4477 21 19V20C21 20.5523 20.5523 21 20 21H4C3.44772 21 3 20.5523 3 20V19Z" fill="#798490"/>
<path d="M3 16C3 14.8954 3.89543 14 5 14H19C20.1046 14 21 14.8954 21 16V16C21 16.5523 20.5523 17 20 17H4C3.44772 17 3 16.5523 3 16V16Z" fill="#798490"/>
</svg>
