<svg width="24" height="24" viewBox="0 0 24 24" fill="none" xmlns="http://www.w3.org/2000/svg">
<path fill-rule="evenodd" clip-rule="evenodd" d="M20.0139 12.2998C21.8363 10.4774 21.8363 7.52259 20.0139 5.70015C18.1914 3.8777 15.2366 3.8777 13.4142 5.70015L12 7.11436L10.5858 5.70015C8.76331 3.8777 5.80854 3.8777 3.9861 5.70015C2.16365 7.52259 2.16365 10.4774 3.9861 12.2998L11.505 19.8187C11.7784 20.0921 12.2216 20.0921 12.4949 19.8187L20.0139 12.2998ZM21.4281 13.714L13.9092 21.2329C12.8547 22.2873 11.1452 22.2873 10.0908 21.2329L2.57188 13.714C-0.0316112 11.1105 -0.0316112 6.88943 2.57188 4.28593C5.17538 1.68244 9.39648 1.68244 12 4.28593C14.6035 1.68244 18.8246 1.68244 21.4281 4.28593C24.0316 6.88943 24.0316 11.1105 21.4281 13.714Z" fill="#798490"/>
</svg>
